<?xml version="1.0" encoding="UTF-8" standalone="no"?>
<!-- Created with Inkscape (http://www.inkscape.org/) -->

<svg
   width="16"
   height="15.999999"
   viewBox="0 0 4.2333332 4.233333"
   version="1.1"
   id="svg1"
   xml:space="preserve"
   xmlns:inkscape="http://www.inkscape.org/namespaces/inkscape"
   xmlns:sodipodi="http://sodipodi.sourceforge.net/DTD/sodipodi-0.dtd"
   xmlns="http://www.w3.org/2000/svg"
   xmlns:svg="http://www.w3.org/2000/svg"><sodipodi:namedview
     id="namedview1"
     pagecolor="#505050"
     bordercolor="#eeeeee"
     borderopacity="1"
     inkscape:showpageshadow="0"
     inkscape:pageopacity="0"
     inkscape:pagecheckerboard="true"
     inkscape:deskcolor="#505050"
     inkscape:document-units="px"><sodipodi:guide
       position="0,4.2333332"
       orientation="0,16"
       id="guide6"
       inkscape:locked="false" /><sodipodi:guide
       position="4.2333332,4.2333332"
       orientation="16,0"
       id="guide7"
       inkscape:locked="false" /><sodipodi:guide
       position="4.2333332,0"
       orientation="0,-16"
       id="guide8"
       inkscape:locked="false" /><sodipodi:guide
       position="0,0"
       orientation="-16,0"
       id="guide9"
       inkscape:locked="false" /></sodipodi:namedview><defs
     id="defs1" /><g
     inkscape:groupmode="layer"
     id="layer4"
     inkscape:label="Enemy"><path
       id="rect22"
       style="font-variation-settings:normal;display:inline;opacity:1;vector-effect:none;fill:#fc7f7f;fill-opacity:1;stroke-width:0.24827;stroke-linecap:butt;stroke-linejoin:miter;stroke-miterlimit:4;stroke-dasharray:none;stroke-dashoffset:0;stroke-opacity:1;-inkscape-stroke:none"
       d="m 1.9616373,0.04547526 c -0.8348649,0 -1.5068847,0.67201959 -1.5068847,1.50688474 v 1.1286133 c 0,0.8348649 0.6720198,1.5068847 1.5068847,1.5068847 h 0.4092774 c 0.8348649,0 1.5068847,-0.6720198 1.5068847,-1.5068847 V 1.55236 c 0,-0.83486515 -0.6720198,-1.50688474 -1.5068847,-1.50688474 z M 0.78909911,1.5409912 1.2350667,1.7135905 1.6836181,1.8732706 A 0.46287829,0.64311731 0 0 1 1.3565063,2.3337076 0.46287829,0.64311731 0 0 1 0.90692137,2.1667928 0.46287829,0.64311731 0 0 1 0.78909911,1.5409912 Z m 2.65513499,0 A 0.46287829,0.64311731 0 0 1 3.3264119,2.1667928 0.46287829,0.64311731 0 0 1 2.8768269,2.3337076 0.46287829,0.64311731 0 0 1 2.5497151,1.8732706 L 2.9982665,1.7135905 Z m -1.311031,0.9446451 c 0.043896,0 0.087089,0.00184 0.1297078,0.00465 0.06065,0.1646644 0.3318595,0.5705391 0.3953247,0.5674072 0.043894,-0.00217 0.1677348,-0.2090545 0.2547648,-0.3927408 0.2417072,0.1298813 0.3942912,0.3189303 0.3942912,0.5307169 0,0.3933069 -0.5236449,0.7100342 -1.1740885,0.7100342 -0.6504437,0 -1.17408854,-0.3167273 -1.17408854,-0.7100342 0,-0.2040123 0.14153804,-0.3869605 0.36793624,-0.5162475 0.086561,0.1798897 0.2053107,0.3761625 0.2480468,0.3782714 0.063076,0.00311 0.3314485,-0.3977235 0.3942912,-0.5643066 0.053652,-0.0045 0.1080485,-0.00775 0.1638143,-0.00775 z" /></g></svg>
