<?xml version="1.0" encoding="UTF-8" standalone="no"?>
<!-- Created with Inkscape (http://www.inkscape.org/) -->

<svg
   width="16"
   height="16"
   viewBox="0 0 4.2333332 4.2333333"
   version="1.1"
   id="svg1"
   xml:space="preserve"
   inkscape:export-filename="character.svg"
   inkscape:export-xdpi="96"
   inkscape:export-ydpi="96"
   inkscape:version="1.3.2 (091e20e, 2023-11-25, custom)"
   sodipodi:docname="icons.svg"
   xmlns:inkscape="http://www.inkscape.org/namespaces/inkscape"
   xmlns:sodipodi="http://sodipodi.sourceforge.net/DTD/sodipodi-0.dtd"
   xmlns="http://www.w3.org/2000/svg"
   xmlns:svg="http://www.w3.org/2000/svg"><sodipodi:namedview
     id="namedview1"
     pagecolor="#505050"
     bordercolor="#eeeeee"
     borderopacity="1"
     inkscape:showpageshadow="0"
     inkscape:pageopacity="0"
     inkscape:pagecheckerboard="true"
     inkscape:deskcolor="#505050"
     inkscape:document-units="px"
     inkscape:zoom="16"
     inkscape:cx="5.59375"
     inkscape:cy="10.03125"
     inkscape:window-width="1920"
     inkscape:window-height="1009"
     inkscape:window-x="-8"
     inkscape:window-y="-8"
     inkscape:window-maximized="1"
     inkscape:current-layer="layer1"><sodipodi:guide
       position="0,4.2333332"
       orientation="0,16"
       id="guide6"
       inkscape:locked="false" /><sodipodi:guide
       position="4.2333332,4.2333332"
       orientation="16,0"
       id="guide7"
       inkscape:locked="false" /><sodipodi:guide
       position="4.2333332,0"
       orientation="0,-16"
       id="guide8"
       inkscape:locked="false" /><sodipodi:guide
       position="0,0"
       orientation="-16,0"
       id="guide9"
       inkscape:locked="false" /></sodipodi:namedview><defs
     id="defs1" /><g
     inkscape:label="Character"
     inkscape:groupmode="layer"
     id="layer1"
     style="display:inline"><path
       id="path2"
       style="font-variation-settings:normal;opacity:1;vector-effect:none;fill:#fc7f7f;fill-opacity:1;stroke-width:0.251145;stroke-linecap:butt;stroke-linejoin:miter;stroke-miterlimit:4;stroke-dasharray:none;stroke-dashoffset:0;stroke-opacity:1;-inkscape-stroke:none;stop-color:#000000;stop-opacity:1"
       d="M 2.1166666,0.16536458 A 1.2764058,1.2764058 0 0 0 0.84025877,1.4417724 1.2764058,1.2764058 0 0 0 2.1166666,2.7181803 1.2764058,1.2764058 0 0 0 3.3930745,1.4417724 1.2764058,1.2764058 0 0 0 2.1166666,0.16536458 Z M 1.5048177,1.3559895 c 0.1534497,0 0.2769857,0.123536 0.2769857,0.2769857 v 0.3059245 c 0,0.1534497 -0.123536,0.2769856 -0.2769857,0.2769856 -0.1534498,0 -0.2769857,-0.1235359 -0.2769857,-0.2769856 V 1.6329752 c 0,-0.1534497 0.1235359,-0.2769857 0.2769857,-0.2769857 z m 1.2236979,0 c 0.1534499,0 0.2769856,0.1235358 0.2769856,0.2769857 v 0.3059245 c 0,0.1534499 -0.1235357,0.2769856 -0.2769856,0.2769856 -0.1534499,0 -0.2769857,-0.1235357 -0.2769857,-0.2769856 V 1.6329752 c 0,-0.1534499 0.1235358,-0.2769857 0.2769857,-0.2769857 z" /><path
       id="rect5"
       style="font-variation-settings:normal;opacity:1;vector-effect:none;fill:#fc7f7f;fill-opacity:1;stroke-width:0.264583;stroke-linecap:butt;stroke-linejoin:miter;stroke-miterlimit:4;stroke-dasharray:none;stroke-dashoffset:0;stroke-opacity:1;-inkscape-stroke:none"
       d="m 1.5213541,2.9352213 c -0.68708912,0 -1.24023431,0.4111713 -1.24023431,0.9219075 V 4.2416015 H 3.9274088 V 3.8571288 c 0,-0.5107362 -0.5531452,-0.9219075 -1.2402344,-0.9219075 z" /></g><g
     inkscape:groupmode="layer"
     id="layer2"
     inkscape:label="Trigger"
     style="display:none"><path
       id="rect9"
       style="font-variation-settings:normal;opacity:1;vector-effect:none;fill:#fc7f7f;fill-opacity:1;stroke-width:0.321276;stroke-linecap:butt;stroke-linejoin:miter;stroke-miterlimit:4;stroke-dasharray:none;stroke-dashoffset:0;stroke-opacity:1;-inkscape-stroke:none"
       d="m 1.3071995,0.21410519 c -0.65287785,0 -1.17843346,0.52555572 -1.17843346,1.17843351 v 1.4482558 c 0,0.6528778 0.52555561,1.1784335 1.17843346,1.1784335 h 1.6183067 c 0.6528778,0 1.179061,-0.5255557 1.179061,-1.1784335 V 1.3925387 c 0,-0.65287779 -0.5261832,-1.17843351 -1.179061,-1.17843351 z M 1.4421107,0.86732636 H 2.790595 c 0.4287556,0 0.7743274,0.34494434 0.7743274,0.77369994 v 0.9512806 c 0,0.4287557 -0.3455718,0.7743275 -0.7743274,0.7743275 H 1.4421107 c -0.4287557,0 -0.77369994,-0.3455718 -0.77369994,-0.7743275 V 1.6410263 c 0,-0.4287556 0.34494424,-0.77369994 0.77369994,-0.77369994 z" /><g
       id="g11"
       transform="matrix(1.2142748,0,0,1.2142748,-0.45354828,-0.37900584)"><rect
         style="font-variation-settings:normal;opacity:1;vector-effect:none;fill:#fc7f7f;fill-opacity:1;stroke-width:0.264583;stroke-linecap:butt;stroke-linejoin:miter;stroke-miterlimit:4;stroke-dasharray:none;stroke-dashoffset:0;stroke-opacity:1;-inkscape-stroke:none"
         id="rect10"
         width="1.4850162"
         height="0.45602861"
         x="1.3741585"
         y="1.4560097"
         ry="0.22801431" /><rect
         style="font-variation-settings:normal;opacity:1;vector-effect:none;fill:#fc7f7f;fill-opacity:1;stroke-width:0.264583;stroke-linecap:butt;stroke-linejoin:miter;stroke-miterlimit:4;stroke-dasharray:none;stroke-dashoffset:0;stroke-opacity:1;-inkscape-stroke:none"
         id="rect11"
         width="0.36248431"
         height="1.0757599"
         x="1.9354244"
         y="1.5787867"
         ry="0.18124215" /></g></g><g
     inkscape:groupmode="layer"
     id="layer3"
     inkscape:label="Chest"
     style="display:none"><path
       id="rect12"
       style="font-variation-settings:normal;opacity:1;vector-effect:none;fill:#fc7f7f;fill-opacity:1;stroke-width:0.264583;stroke-linecap:butt;stroke-linejoin:miter;stroke-miterlimit:4;stroke-dasharray:none;stroke-dashoffset:0;stroke-opacity:1;-inkscape-stroke:none"
       d="m 0.47335611,0.23409423 c -0.1263198,0 -0.22789306,0.10157327 -0.22789306,0.22789307 V 1.6252238 H 0.9064046 V 1.4846639 c 0,-0.2134367 0.1720695,-0.3855062 0.3855062,-0.3855062 h 1.6495117 c 0.2134367,0 0.3855061,0.1720695 0.3855061,0.3855062 V 1.6252238 H 3.9873534 V 0.4619873 c 0,-0.1263198 -0.1015732,-0.22789307 -0.227893,-0.22789307 z M 0.24546305,2.2799641 v 1.4676107 c 0,0.1263198 0.10157326,0.2278931 0.22789306,0.2278931 H 3.7594604 c 0.1263198,0 0.227893,-0.1015733 0.227893,-0.2278931 V 2.2799641 H 3.3269286 v 0.1529623 c 0,0.2134367 -0.1720694,0.3849894 -0.3855061,0.3849894 H 1.2919108 c -0.2134367,0 -0.3855062,-0.1715527 -0.3855062,-0.3849894 V 2.2799641 Z" /><rect
       style="font-variation-settings:normal;opacity:1;vector-effect:none;fill:#fc7f7f;fill-opacity:1;stroke-width:0.264583;stroke-linecap:butt;stroke-linejoin:miter;stroke-miterlimit:4;stroke-dasharray:none;stroke-dashoffset:0;stroke-opacity:1;-inkscape-stroke:none"
       id="rect14"
       width="1.6487188"
       height="1.0172946"
       x="1.2923073"
       y="1.4499371"
       ry="0.22801431" /></g><g
     inkscape:groupmode="layer"
     id="layer4"
     inkscape:label="Enemy"
     style="display:none"><path
       id="rect22"
       style="font-variation-settings:normal;display:inline;opacity:1;vector-effect:none;fill:#fc7f7f;fill-opacity:1;stroke-width:0.24827;stroke-linecap:butt;stroke-linejoin:miter;stroke-miterlimit:4;stroke-dasharray:none;stroke-dashoffset:0;stroke-opacity:1;-inkscape-stroke:none"
       d="m 1.9616373,0.04547526 c -0.8348649,0 -1.5068847,0.67201959 -1.5068847,1.50688474 v 1.1286133 c 0,0.8348649 0.6720198,1.5068847 1.5068847,1.5068847 h 0.4092774 c 0.8348649,0 1.5068847,-0.6720198 1.5068847,-1.5068847 V 1.55236 c 0,-0.83486515 -0.6720198,-1.50688474 -1.5068847,-1.50688474 z M 0.78909911,1.5409912 1.2350667,1.7135905 1.6836181,1.8732706 A 0.46287829,0.64311731 0 0 1 1.3565063,2.3337076 0.46287829,0.64311731 0 0 1 0.90692137,2.1667928 0.46287829,0.64311731 0 0 1 0.78909911,1.5409912 Z m 2.65513499,0 A 0.46287829,0.64311731 0 0 1 3.3264119,2.1667928 0.46287829,0.64311731 0 0 1 2.8768269,2.3337076 0.46287829,0.64311731 0 0 1 2.5497151,1.8732706 L 2.9982665,1.7135905 Z m -1.311031,0.9446451 c 0.043896,0 0.087089,0.00184 0.1297078,0.00465 0.06065,0.1646644 0.3318595,0.5705391 0.3953247,0.5674072 0.043894,-0.00217 0.1677348,-0.2090545 0.2547648,-0.3927408 0.2417072,0.1298813 0.3942912,0.3189303 0.3942912,0.5307169 0,0.3933069 -0.5236449,0.7100342 -1.1740885,0.7100342 -0.6504437,0 -1.17408854,-0.3167273 -1.17408854,-0.7100342 0,-0.2040123 0.14153804,-0.3869605 0.36793624,-0.5162475 0.086561,0.1798897 0.2053107,0.3761625 0.2480468,0.3782714 0.063076,0.00311 0.3314485,-0.3977235 0.3942912,-0.5643066 0.053652,-0.0045 0.1080485,-0.00775 0.1638143,-0.00775 z" /></g></svg>
